<svg width="128" height="128" viewBox="0 0 128 128" fill="none" xmlns="http://www.w3.org/2000/svg">
  <style>
    @media (prefers-color-scheme: dark) {
      .a { fill: white; }
    }
  </style>
<path class="a" fill="black" fill-rule="evenodd" clip-rule="evenodd" d="M2.62414 28.9556C3.12302 26.8669 5.00342 25.4693 7.0649 25.5005C7.43352 25.495 7.80881 25.535 8.18381 25.6248L55.2963 36.9094L55.2978 36.9098L55.2991 36.9101C55.5754 36.9761 55.8487 37.0486 56.1191 37.1274C61.2428 38.4315 66.7593 38.4315 71.883 37.1274C72.1533 37.0486 72.4267 36.9761 72.703 36.9101L72.7043 36.9098L72.7058 36.9094L119.818 25.6248C120.193 25.535 120.569 25.495 120.937 25.5005C122.999 25.4693 124.879 26.8669 125.378 28.9556C125.955 31.3729 124.464 33.8006 122.046 34.3779L74.8753 45.6444C74.6811 45.698 74.4864 45.7502 74.2914 45.8008C70.8643 46.8518 68.501 50.0159 68.501 53.6196V59.3805C68.501 62.0999 69.2869 64.7624 70.7654 67.0488L88.6953 94.776C90.8046 98.0378 95.4374 98.4457 98.0868 95.5958L117.705 74.493C119.397 72.6728 122.245 72.569 124.065 74.2611C125.885 75.9533 125.989 78.8007 124.297 80.6209L104.678 101.724C98.0381 108.866 86.4346 107.854 81.1378 99.6631L64.8408 74.461C64.4467 73.8517 63.5553 73.8517 63.1613 74.461L46.8643 99.6631C41.5675 107.854 29.9639 108.866 23.3237 101.724L3.70524 80.6209C2.01307 78.8007 2.11686 75.9533 3.93707 74.2611C5.75728 72.569 8.60464 72.6728 10.2968 74.493L29.9153 95.5958C32.5647 98.4457 37.1975 98.0378 39.3067 94.776L57.2366 67.0488C58.7151 64.7624 59.501 62.0999 59.501 59.3805V53.6196C59.501 50.0159 57.1377 46.8518 53.7107 45.8008C53.5156 45.7502 53.3209 45.698 53.1267 45.6444L5.95564 34.3779C3.53835 33.8006 2.04679 31.3729 2.62414 28.9556Z" />
</svg>
